<svg width="1280" height="134" viewBox="0 0 1280 134" fill="none" xmlns="http://www.w3.org/2000/svg">
<rect width="1280" height="134" fill="#23272A"/>
<path d="M573.229 47.8833C569.52 46.1888 565.581 44.9539 561.47 44.2646C560.953 45.1549 560.378 46.3611 559.975 47.3089C555.603 46.677 551.262 46.677 546.949 47.3089C546.547 46.3611 545.943 45.1549 545.454 44.2646C541.315 44.9539 537.376 46.1888 533.693 47.8833C526.248 58.854 524.235 69.5662 525.241 80.1348C530.186 83.7247 534.958 85.9075 539.647 87.3435C540.797 85.7926 541.832 84.1268 542.723 82.375C541.027 81.7432 539.417 80.9677 537.865 80.0486C538.267 79.7616 538.67 79.4457 539.044 79.1298C548.416 83.409 558.567 83.409 567.824 79.1298C568.226 79.4457 568.6 79.7616 569.003 80.0486C567.45 80.9677 565.84 81.7432 564.144 82.375C565.035 84.1268 566.07 85.7926 567.22 87.3435C571.906 85.9075 576.707 83.7247 581.626 80.1348C582.862 67.9006 579.668 57.2745 573.229 47.8833ZM544.017 73.6156C541.2 73.6156 538.9 71.0597 538.9 67.9293C538.9 64.7989 541.142 62.2428 544.017 62.2428C546.863 62.2428 549.192 64.7989 549.134 67.9293C549.134 71.0597 546.863 73.6156 544.017 73.6156ZM562.908 73.6156C560.09 73.6156 557.788 71.0597 557.788 67.9293C557.788 64.7989 560.033 62.2428 562.908 62.2428C565.754 62.2428 568.083 64.7989 568.025 67.9293C568.025 71.0597 565.783 73.6156 562.908 73.6156Z" fill="white"/>
<path d="M601.549 53.2812H613.77C616.702 53.2812 619.203 53.7407 621.244 54.6597C623.285 55.5788 624.809 56.8425 625.815 58.4794C626.822 60.1165 627.339 61.9831 627.339 64.1084C627.339 66.1761 626.822 68.043 625.758 69.7373C624.694 71.4031 623.084 72.7528 620.928 73.7293C618.772 74.7058 616.098 75.194 612.907 75.194H601.549V53.2812ZM612.764 69.6224C614.747 69.6224 616.271 69.1342 617.335 68.1291C618.398 67.1526 618.945 65.7741 618.945 64.0797C618.945 62.5001 618.456 61.2364 617.507 60.2888C616.558 59.341 615.121 58.8528 613.195 58.8528H609.371V69.6224H612.764Z" fill="white"/>
<path d="M646.374 75.167C644.677 74.7361 643.154 74.1043 641.803 73.2427V68.0444C642.838 68.8486 644.189 69.4805 645.914 69.9974C647.638 70.5144 649.306 70.7729 650.916 70.7729C651.663 70.7729 652.238 70.6867 652.612 70.4857C652.986 70.2846 653.187 70.0549 653.187 69.7677C653.187 69.4517 653.072 69.1933 652.871 68.9922C652.669 68.7912 652.267 68.6188 651.663 68.4465L647.897 67.6138C645.741 67.1256 644.217 66.4075 643.297 65.5459C642.378 64.6843 641.946 63.507 641.946 62.0709C641.946 60.8647 642.349 59.8022 643.125 58.9118C643.93 58.0215 645.051 57.3322 646.517 56.844C647.983 56.3559 649.68 56.0974 651.663 56.0974C653.417 56.0974 655.027 56.2697 656.493 56.6718C657.959 57.045 659.167 57.5333 660.115 58.1077V63.0187C659.138 62.4443 657.988 61.9848 656.723 61.6401C655.429 61.2955 654.107 61.1231 652.756 61.1231C650.801 61.1231 649.823 61.4678 649.823 62.1284C649.823 62.4443 649.967 62.6741 650.283 62.8464C650.6 63.0187 651.146 63.1623 651.951 63.3346L655.084 63.909C657.126 64.2535 658.649 64.8854 659.655 65.7757C660.662 66.666 661.15 67.9583 661.15 69.7102C661.15 71.6058 660.317 73.1278 658.649 74.2192C656.982 75.3393 654.624 75.8848 651.577 75.8848C649.795 75.8273 648.07 75.5976 646.374 75.167Z" fill="white"/>
<path d="M668.915 74.507C667.133 73.6167 665.753 72.4393 664.862 70.9459C663.942 69.4524 663.51 67.7581 663.51 65.8625C663.51 63.9958 663.97 62.3013 664.919 60.8368C665.868 59.3433 667.248 58.1945 669.059 57.333C670.87 56.5001 673.055 56.0693 675.585 56.0693C678.718 56.0693 681.306 56.7299 683.376 58.0509V63.7661C682.657 63.2778 681.795 62.847 680.817 62.5598C679.84 62.2439 678.805 62.1003 677.712 62.1003C675.757 62.1003 674.263 62.4449 673.141 63.163C672.049 63.881 671.503 64.8 671.503 65.9487C671.503 67.0688 672.02 67.9878 673.113 68.7058C674.176 69.4237 675.729 69.797 677.741 69.797C678.776 69.797 679.811 69.6534 680.817 69.3375C681.823 69.0216 682.715 68.6771 683.433 68.2176V73.7603C681.133 75.1389 678.46 75.8282 675.441 75.8282C672.883 75.8282 670.726 75.3686 668.915 74.507Z" fill="white"/>
<path d="M691.572 74.507C689.761 73.6167 688.381 72.4393 687.432 70.9171C686.484 69.3949 685.995 67.7006 685.995 65.8051C685.995 63.9384 686.484 62.2439 687.432 60.7793C688.381 59.3146 689.761 58.1658 691.543 57.333C693.326 56.5001 695.482 56.0693 697.957 56.0693C700.43 56.0693 702.586 56.4714 704.368 57.333C706.15 58.1658 707.53 59.3146 708.479 60.7793C709.428 62.2439 709.888 63.9097 709.888 65.8051C709.888 67.6719 709.428 69.3949 708.479 70.9171C707.53 72.4393 706.179 73.6454 704.368 74.507C702.557 75.3686 700.43 75.8282 697.957 75.8282C695.51 75.8282 693.383 75.3686 691.572 74.507ZM701.091 68.9641C701.838 68.2176 702.241 67.1836 702.241 65.9487C702.241 64.6851 701.867 63.7086 701.091 62.9619C700.315 62.2152 699.28 61.8418 697.986 61.8418C696.635 61.8418 695.597 62.2152 694.821 62.9619C694.073 63.7086 693.671 64.6851 693.671 65.9487C693.671 67.2124 694.044 68.2176 694.821 68.9641C695.597 69.7396 696.635 70.113 697.986 70.113C699.28 70.0842 700.343 69.7109 701.091 68.9641Z" fill="white"/>
<path d="M729.121 57.217V63.9662C728.316 63.4492 727.281 63.1907 726.016 63.1907C724.349 63.1907 723.054 63.7077 722.164 64.7127C721.272 65.7179 720.812 67.2976 720.812 69.4227V75.1666H713.136V56.9011H720.669V62.7312C721.071 60.6059 721.761 59.0264 722.681 58.0212C723.601 57.016 724.809 56.4705 726.274 56.4705C727.367 56.4705 728.316 56.7289 729.121 57.217Z" fill="white"/>
<path d="M755 52.6504V75.1949H747.325V71.088C746.663 72.6389 745.685 73.8165 744.363 74.6205C743.038 75.4246 741.398 75.8267 739.443 75.8267C737.718 75.8267 736.196 75.3959 734.901 74.563C733.608 73.7303 732.603 72.5528 731.913 71.088C731.223 69.5947 730.878 67.9289 730.878 66.091C730.848 64.1667 731.223 62.4437 731.998 60.9215C732.746 59.3995 733.838 58.2219 735.218 57.3603C736.598 56.4987 738.178 56.0679 739.961 56.0679C743.613 56.0679 746.06 57.6475 747.325 60.8353V52.6504H755ZM746.175 68.8193C746.95 68.0725 747.353 67.0673 747.353 65.8612C747.353 64.6837 746.98 63.7359 746.203 63.0181C745.427 62.3001 744.392 61.9267 743.096 61.9267C741.801 61.9267 740.766 62.3001 739.991 63.0468C739.213 63.7934 738.841 64.7411 738.841 65.9474C738.841 67.1535 739.213 68.1013 739.991 68.848C740.766 69.5947 741.773 69.9681 743.066 69.9681C744.363 69.9681 745.398 69.5947 746.175 68.8193Z" fill="white"/>
<path d="M634.414 57.9933C636.619 57.9933 638.41 56.3858 638.41 54.4034C638.41 52.4206 636.619 50.8135 634.414 50.8135C632.206 50.8135 630.418 52.4206 630.418 54.4034C630.418 56.3858 632.206 57.9933 634.414 57.9933Z" fill="white"/>
<path d="M638.41 60.4612C635.966 61.5237 632.919 61.5524 630.418 60.4612V75.1941H638.41V60.4612Z" fill="white"/>
</svg>
